<?xml version="1.0" encoding="UTF-8" standalone="no"?>
<svg
   xmlns:dc="http://purl.org/dc/elements/1.1/"
   xmlns:cc="http://creativecommons.org/ns#"
   xmlns:rdf="http://www.w3.org/1999/02/22-rdf-syntax-ns#"
   xmlns:svg="http://www.w3.org/2000/svg"
   xmlns="http://www.w3.org/2000/svg"
   xmlns:sodipodi="http://sodipodi.sourceforge.net/DTD/sodipodi-0.dtd"
   xmlns:inkscape="http://www.inkscape.org/namespaces/inkscape"
   width="1411.1112mm"
   height="1411.1112mm"
   viewBox="0 0 1411.1112 1411.1112"
   version="1.1"
   id="svg8"
   inkscape:version="1.0.1 (3bc2e813f5, 2020-09-07)"
   sodipodi:docname="logo.svg">
  <defs
     id="defs2" />
  <sodipodi:namedview
     id="base"
     pagecolor="#ffffff"
     bordercolor="#666666"
     borderopacity="1.0"
     inkscape:pageopacity="0.0"
     inkscape:pageshadow="2"
     inkscape:zoom="0.52331553"
     inkscape:cx="382.59177"
     inkscape:cy="2181.9855"
     inkscape:document-units="mm"
     inkscape:current-layer="layer3"
     inkscape:document-rotation="0"
     showgrid="false"
     inkscape:window-width="3840"
     inkscape:window-height="2066"
     inkscape:window-x="-11"
     inkscape:window-y="-11"
     inkscape:window-maximized="1" />
  <metadata
     id="metadata5">
    <rdf:RDF>
      <cc:Work
         rdf:about="">
        <dc:format>image/svg+xml</dc:format>
        <dc:type
           rdf:resource="http://purl.org/dc/dcmitype/StillImage" />
        <dc:title />
      </cc:Work>
    </rdf:RDF>
  </metadata>
  <g
     inkscape:groupmode="layer"
     id="layer2"
     inkscape:label="Layer 2"
     style="display:none">
    <rect
       style="display:inline;fill:#1a1a1a;stroke-width:0.264583"
       id="rect1431"
       width="1411.1111"
       height="1411.1111"
       x="0"
       y="0" />
  </g>
  <g
     inkscape:label="Back"
     inkscape:groupmode="layer"
     id="layer1"
     style="display:inline">
    <path
       style="fill:#ffffff;fill-opacity:0.226337;stroke-width:0.352778"
       d="m 204.9639,1287.0467 c -21.55973,-2.2312 -40.87623,-11.3041 -55.76491,-26.1928 -13.67639,-13.6764 -22.50192,-31.2035 -25.62192,-50.8838 -0.60798,-3.835 -0.63401,-24.563 -0.63401,-504.94367 0,-480.3807 0.026,-501.10864 0.63401,-504.94365 5.35142,-33.75573 27.49065,-60.66358 59.42345,-72.22278 4.20865,-1.52347 12.00298,-3.47769 17.08226,-4.28293 3.8351,-0.60799 24.68239,-0.63401 508.11865,-0.63401 483.43627,0 504.28357,0.026 508.11867,0.63401 33.7557,5.35142 60.6636,27.49065 72.2228,59.42345 1.5234,4.20865 3.4777,12.00298 4.2829,17.08226 0.608,3.83501 0.634,24.56295 0.634,504.94365 0,480.38067 -0.026,501.10867 -0.634,504.94367 -5.3526,33.7632 -27.4895,60.6632 -59.4395,72.2286 -3.7252,1.3484 -11.6905,3.3953 -16.6557,4.2799 -3.1373,0.559 -35.521,0.6003 -506.94167,0.6465 -276.97467,0.027 -504.14593,-0.01 -504.82503,-0.078 z m 34.72193,-40.1178 c 5.32202,-1.2547 9.95661,-2.8061 13.93003,-4.6629 14.87259,-6.95 26.73266,-19.6702 32.67767,-35.0476 l 1.16421,-3.0114 h 34.98117 34.98116 l 1.16237,3.0066 c 7.28042,18.8316 22.96125,33.2332 41.99675,38.5707 7.08318,1.9861 8.58608,2.1679 17.81528,2.1549 8.14419,-0.012 8.8772,-0.067 12.7,-0.969 12.8475,-3.0302 22.64502,-8.1988 31.18126,-16.4493 9.69278,-9.3685 15.96746,-20.804 18.63231,-33.9572 0.70591,-3.4843 0.80832,-5.0188 0.79675,-11.9358 -0.0102,-6.0142 -0.16211,-8.727 -0.62735,-11.1957 -2.53347,-13.4432 -8.78695,-25.248 -18.28832,-34.5233 -9.02349,-8.8088 -18.74181,-14.019 -31.69465,-16.9922 -3.77733,-0.867 -4.65264,-0.9324 -12.7,-0.9482 -9.16884,-0.018 -11.43494,0.2691 -18.52083,2.3468 -17.70839,5.1924 -32.61812,18.4261 -40.28444,35.7561 l -1.39573,3.1551 -35.79408,0.09 -35.79408,0.09 -1.32665,-3.1331 c -4.93446,-11.6532 -14.06842,-22.2128 -25.32417,-29.2768 -1.28469,-0.8063 -4.18187,-2.3435 -6.43819,-3.416 l -4.1024,-1.95 v -35.9775 -35.9775 l 3.79123,-1.7748 c 13.3497,-6.2495 24.04461,-16.5823 30.56516,-29.5304 7.41451,-14.7233 8.67464,-32.10142 3.49744,-48.23254 -3.02898,-9.43772 -7.92287,-17.4988 -15.06544,-24.81548 -5.55486,-5.69024 -11.34154,-9.80902 -18.68599,-13.30008 l -4.1024,-1.95001 v -35.97752 -35.97751 l 3.79123,-1.77479 c 13.3497,-6.2495 24.04461,-16.58236 30.56516,-29.53043 7.41451,-14.72325 8.67464,-32.10141 3.49744,-48.23252 -3.14147,-9.78821 -8.53925,-18.46767 -16.03696,-25.787 -9.0235,-8.80879 -18.74179,-14.019 -31.69464,-16.99218 -3.77733,-0.86706 -4.65266,-0.93243 -12.7,-0.94827 -9.17463,-0.018 -11.49667,0.2769 -18.52084,2.35243 -19.85461,5.8667 -35.59733,21.21204 -42.36532,41.29589 -2.34995,6.97339 -2.79024,10.04757 -2.79024,19.4819 0,7.43473 0.0987,8.954 0.81006,12.46499 4.37059,21.57246 18.8041,38.99895 39.05383,47.1521 l 4.58612,1.84654 v 34.67863 34.67865 l -3.76187,1.47959 c -18.29397,7.19515 -31.63832,21.20078 -37.8979,39.77594 -2.34995,6.9734 -2.79024,10.04757 -2.79024,19.48191 0,7.43472 0.0987,8.95396 0.81006,12.46496 4.37059,21.5725 18.8041,38.999 39.05383,47.1521 l 4.58612,1.8466 v 34.6786 34.6786 l -3.76187,1.4796 c -18.29397,7.1952 -31.63832,21.2008 -37.8979,39.776 -2.34995,6.9734 -2.79024,10.0475 -2.79024,19.4819 0,7.4347 0.0987,8.954 0.81006,12.465 5.26306,25.9775 25.15258,45.7114 51.04828,50.649 4.35019,0.8294 4.77627,0.8534 13.05278,0.7355 6.86751,-0.098 8.20483,-0.2152 11.61498,-1.0193 z m 383.14338,-0.01 c 12.6401,-2.9774 22.40156,-8.1442 30.97678,-16.396 5.7386,-5.5223 9.85866,-11.1529 13.32209,-18.2066 4.1191,-8.3889 5.95312,-15.8764 6.23422,-25.4513 0.26077,-8.8833 -0.55115,-14.773 -3.09168,-22.427 -3.35248,-10.1001 -8.50625,-18.3258 -16.0945,-25.6877 -8.98119,-8.7133 -18.66762,-13.8873 -31.5233,-16.8382 -3.77734,-0.867 -4.65265,-0.9324 -12.7,-0.9482 -9.16884,-0.018 -11.43494,0.2691 -18.52084,2.3468 -24.70637,7.2443 -42.87883,29.4418 -45.28517,55.3153 -0.41631,4.4764 0.0819,13.3742 1.01724,18.1681 4.98983,25.5739 25.12106,45.4852 50.97071,50.414 4.35017,0.8294 4.77626,0.8534 13.05278,0.7355 6.87931,-0.098 8.20201,-0.2145 11.64167,-1.0247 z m 191.55834,0 c 12.6401,-2.9774 22.40157,-8.1442 30.97678,-16.396 9.70132,-9.3356 15.88414,-20.5859 18.63313,-33.9052 0.7438,-3.6039 0.83534,-4.9631 0.81971,-12.1708 -0.0162,-7.4085 -0.0994,-8.4991 -0.95849,-12.5443 -4.61695,-21.7398 -19.32295,-39.1867 -39.68154,-47.0773 l -2.55764,-0.9913 v -35.1774 -35.1773 l 2.91041,-1.1526 c 17.67279,-6.9986 31.71406,-21.8177 37.43269,-39.5062 2.35208,-7.2753 2.87278,-10.8628 2.86734,-19.75559 -0.004,-6.87187 -0.11405,-8.48001 -0.81819,-11.97836 -0.96669,-4.80254 -2.45608,-9.58409 -4.33399,-13.91384 -0.75314,-1.73648 -1.36937,-3.32853 -1.36937,-3.53783 0,-0.20934 23.64475,-24.02495 52.54392,-52.92362 l 52.54393,-52.54305 3.0765,1.33619 c 4.2314,1.83776 9.45762,3.50569 14.07316,4.49135 3.45711,0.73826 4.80441,0.82903 12.34722,0.83157 9.42838,0.004 11.80748,-0.34466 19.75558,-2.88844 17.7613,-5.68448 32.4524,-19.47171 39.5421,-37.10926 l 1.5049,-3.74389 h 34.9874 34.9874 l 0.969,2.64583 c 3.8646,10.55194 11.9544,21.48347 20.8811,28.21619 8.0843,6.09731 16.4832,9.90505 26.5836,12.05188 3.4496,0.73322 4.821,0.82515 12.3473,0.82769 9.4283,0.004 11.8074,-0.34466 19.7555,-2.88844 23.2511,-7.44149 40.504,-28.36122 43.5864,-52.84992 0.547,-4.34549 0.2534,-14.34642 -0.5539,-18.87129 -3.5907,-20.12368 -16.4378,-37.13237 -34.9186,-46.22945 -4.7464,-2.33641 -8.6338,-3.68395 -14.8336,-5.14202 -4.0081,-0.94262 -4.6433,-0.99222 -12.8594,-1.00383 -9.1564,-0.0131 -11.3847,0.26843 -18.5209,2.33871 -17.4473,5.06162 -32.5953,18.38304 -40.0491,35.21992 l -1.6398,3.70417 -35.8076,0.0898 -35.8075,0.0899 -1.4762,-3.45705 c -4.9513,-11.59577 -13.9843,-21.96832 -25.2277,-28.96891 -3.0085,-1.87325 -7.9264,-4.28234 -10.9707,-5.37415 l -2.3033,-0.82606 v -35.1644 -35.1644 l 1.852,-0.60166 c 3.5071,-1.13933 9.6226,-4.28389 13.8641,-7.12883 13.8842,-9.3128 23.5116,-23.80446 27.0098,-40.65676 0.75,-3.61343 0.8402,-4.94397 0.8245,-12.17083 -0.016,-7.40848 -0.099,-8.49905 -0.9585,-12.54422 -3.7986,-17.8865 -14.0856,-32.53235 -29.5392,-42.05545 -5.8145,-3.5832 -12.3018,-6.14317 -20.1083,-7.93507 -3.7773,-0.86705 -4.6526,-0.93242 -12.69999,-0.94826 -9.15963,-0.018 -11.37684,0.26137 -18.52084,2.3339 -22.35775,6.48614 -40.02948,25.99281 -44.44238,49.057 -1.41132,7.3763 -1.33992,17.05914 0.18143,24.61211 3.03259,15.05539 11.87465,29.2039 23.91788,38.27181 4.93159,3.71319 9.46302,6.23489 16.19963,9.01495 l 0.7954,0.32826 -0.0899,35.69371 -0.0899,35.6937 -3.175,1.32002 c -14.85494,6.17601 -27.36765,18.67962 -33.73938,33.7148 -4.02432,9.49604 -5.51702,18.1676 -4.89275,28.42299 0.40524,6.65692 1.34056,11.43318 3.40586,17.39198 0.87425,2.52236 1.66412,4.90361 1.75528,5.29167 0.13109,0.55795 -10.97657,11.84441 -53.09796,53.95271 l -53.26373,53.24715 -1.16837,-0.39942 c -0.64262,-0.21967 -2.82367,-0.9725 -4.84674,-1.67297 -2.02311,-0.70048 -5.51561,-1.69369 -7.76111,-2.20712 -3.802,-0.86932 -4.67717,-0.93469 -12.72583,-0.95056 -7.77402,-0.0152 -9.01548,0.0652 -12.34722,0.80024 -9.90897,2.18623 -16.92258,5.18181 -24.51806,10.47189 -14.43993,10.05713 -23.88602,25.426 -26.66944,43.39142 -0.59471,3.83844 -0.47533,13.71854 0.22021,18.22374 2.3175,15.0115 9.40985,28.1106 20.75748,38.3374 4.97748,4.4859 12.74456,9.2997 18.6399,11.5524 l 2.39769,0.9162 v 35.5495 35.5495 l -3.22767,1.3378 c -20.75745,8.6038 -35.26191,27.3355 -38.78761,50.0918 -0.59471,3.8385 -0.47533,13.7186 0.22021,18.2237 2.78987,18.0713 12.69023,33.651 27.75543,43.6773 7.10096,4.7258 14.73824,7.8964 22.85908,9.49 5.3056,1.0411 5.39323,1.0469 13.93472,0.9252 6.87931,-0.098 8.20202,-0.2145 11.64167,-1.0247 z m 191.55835,0 c 12.9857,-3.0588 22.9006,-8.4327 31.5918,-17.1226 7.4925,-7.4914 11.0605,-12.9909 15.5187,-23.9199 l 0.3245,-0.7954 35.3216,0.09 35.3214,0.09 0.7964,2.1166 c 3.8562,10.2489 11.9722,21.1041 20.7003,27.687 8.0843,6.0974 16.4832,9.9051 26.5836,12.0519 3.4496,0.7332 4.821,0.8252 12.3473,0.8277 9.4283,0 11.8074,-0.3447 19.7555,-2.8884 23.2511,-7.4415 40.504,-28.3612 43.5864,-52.85 0.547,-4.3454 0.2534,-14.3464 -0.5539,-18.8712 -3.5907,-20.1237 -16.4378,-37.1324 -34.9186,-46.2295 -4.7464,-2.3364 -8.6338,-3.6839 -14.8336,-5.142 -4.0081,-0.9426 -4.6433,-0.9922 -12.8594,-1.0038 -9.1564,-0.013 -11.3847,0.2684 -18.5209,2.3387 -17.6843,5.1303 -32.8394,18.5899 -40.2527,35.7491 l -1.8289,4.2333 -35.4103,0.09 -35.4103,0.09 -1.6635,-3.9704 c -5.9632,-14.2327 -17.4089,-26.1106 -31.6669,-32.8628 -4.0712,-1.928 -8.6877,-3.4711 -14.1049,-4.7146 -3.7773,-0.867 -4.6526,-0.9324 -12.69999,-0.9482 -9.15963,-0.018 -11.37684,0.2613 -18.52084,2.3339 -22.35775,6.4861 -40.02948,25.9928 -44.44238,49.057 -1.41132,7.3763 -1.33992,17.0591 0.18143,24.6121 3.34208,16.5919 13.13801,31.1877 27.2227,40.5615 7.10096,4.7258 14.73825,7.8964 22.85909,9.49 5.3056,1.0411 5.39323,1.0469 13.93472,0.9252 6.87927,-0.098 8.20197,-0.2145 11.64167,-1.0247 z M 527.90806,1108.849 c 5.16146,-1.8885 7.83978,-4.2959 20.67818,-18.5864 4.35641,-4.8491 9.51434,-10.5641 11.46206,-12.7 1.94773,-2.1358 7.88378,-8.7252 13.19125,-14.6431 5.30747,-5.9178 9.83992,-10.9667 10.07212,-11.2196 0.34403,-0.3747 0.91779,-0.263 3.10074,0.6042 3.09693,1.2303 7.61291,2.539 11.89874,3.4483 2.41152,0.5117 4.65631,0.6367 11.46528,0.6385 9.43412,0 11.83266,-0.3488 19.75555,-2.8934 21.798,-7.0011 38.3387,-25.631 42.88336,-48.3 0.53237,-2.6554 0.82408,-5.70112 0.94696,-9.8862 0.26077,-8.88333 -0.55115,-14.77302 -3.09168,-22.42707 -3.35248,-10.1001 -8.50625,-18.32582 -16.0945,-25.68769 -8.98119,-8.71326 -18.66762,-13.88727 -31.5233,-16.83816 -3.77734,-0.86705 -4.65265,-0.93242 -12.7,-0.94826 -9.16884,-0.018 -11.43494,0.2691 -18.52084,2.34682 -17.79143,5.21677 -32.98278,18.75744 -40.42146,36.02933 l -1.47048,3.41436 -35.64738,-0.0899 -35.64735,-0.0899 -1.46795,-3.39107 c -3.13221,-7.23565 -7.22647,-13.32685 -12.8627,-19.1364 -9.07817,-9.35732 -19.38098,-15.05021 -32.82019,-18.13504 -3.77733,-0.86705 -4.65264,-0.93242 -12.7,-0.94826 -9.16884,-0.018 -11.43494,0.2691 -18.52083,2.34682 -22.28173,6.53341 -39.31628,25.17831 -44.34153,48.53344 -0.72249,3.35784 -0.81403,4.73541 -0.81403,12.24996 0,7.43472 0.0987,8.95392 0.81005,12.46492 4.8212,23.7965 22.23629,42.8234 45.05106,49.2206 7.08318,1.9862 8.58608,2.168 17.81528,2.1549 8.14419,-0.012 8.8772,-0.067 12.7,-0.969 12.96367,-3.0575 22.71949,-8.2325 31.34124,-16.6248 6.85225,-6.6699 11.32184,-13.2763 15.05881,-22.2578 l 1.46784,-3.5277 h 35.0441 35.0441 l 1.28044,3.175 c 0.70425,1.7462 1.6279,3.8433 2.05254,4.6602 0.42463,0.8169 0.77205,1.6276 0.77205,1.8015 0,0.311 -6.37208,7.4397 -28.75139,32.1653 -20.06946,22.1736 -19.88838,21.9582 -21.68194,25.7909 -1.20561,2.5764 -2.11832,6.3608 -2.11832,8.7834 0,2.6791 0.96474,6.3872 2.44115,9.3828 2.39709,4.8637 7.46492,9.0022 12.93058,10.5592 2.66615,0.7596 9.28335,0.4985 11.93239,-0.4708 z m 563.71194,-3.8026 c 3.3908,-0.8748 6.8328,-2.8641 9.4031,-5.4344 3.941,-3.9409 5.9936,-8.8957 5.9936,-14.4675 0,-4.5 -1.1767,-8.1531 -3.9771,-12.3472 -0.5829,-0.8731 -12.574,-13.1262 -26.6467,-27.229 l -25.5868,-25.6414 1.2892,-3.2863 c 1.6429,-4.1881 2.4722,-6.95 3.476,-11.5766 0.7099,-3.2719 0.8029,-4.6718 0.7976,-11.99449 -0.01,-7.63411 -0.081,-8.64094 -0.9494,-12.72061 -2.6889,-12.62782 -8.156,-22.93161 -16.9961,-32.03247 -8.871,-9.13274 -19.3768,-14.91043 -32.6539,-17.95805 -3.7773,-0.86705 -4.6526,-0.93242 -12.69999,-0.94826 -9.15963,-0.018 -11.37684,0.26137 -18.52084,2.33391 -22.35775,6.48613 -40.02948,25.9928 -44.44238,49.05699 -1.41132,7.37631 -1.33992,17.05914 0.18143,24.61208 3.34208,16.592 13.13801,31.1878 27.2227,40.5615 7.06639,4.7028 14.38639,7.7496 23.03548,9.588 3.44953,0.7332 4.82099,0.8251 12.34722,0.8277 7.58918,0 8.85058,-0.083 12.17088,-0.8218 4.6824,-1.0425 10.6471,-2.9577 14.0714,-4.5182 l 2.6501,-1.2077 25.4177,25.3629 c 13.9798,13.9497 26.1321,25.8396 27.0052,26.4222 4.2091,2.8083 7.6069,3.9165 12.1199,3.9528 1.7895,0.014 4.0501,-0.2138 5.2917,-0.5341 z m 105.8842,-49.6812 c 8.83,-2.08 15.6706,-4.9998 22.5953,-9.6445 15.166,-10.1725 25.3973,-26.8228 27.6939,-45.0688 0.547,-4.34548 0.2534,-14.34641 -0.5539,-18.87128 -3.5907,-20.12368 -16.4378,-37.13237 -34.9186,-46.22945 -4.7464,-2.33641 -8.6338,-3.68395 -14.8336,-5.14202 -4.0081,-0.94262 -4.6433,-0.99222 -12.8594,-1.00383 -7.7633,-0.0109 -9.0202,0.071 -12.3473,0.80504 -13.9205,3.07128 -24.2575,8.6632 -33.6358,18.19561 -8.6317,8.77355 -15.067,21.23609 -17.1426,33.19826 -1.2566,7.24161 -1.1255,16.48125 0.3379,23.81247 2.9682,14.8706 11.8651,29.1825 23.6805,38.094 8.1016,6.1104 16.8809,10.0846 26.4073,11.9539 5.3056,1.0412 5.3932,1.0469 13.9347,0.9252 6.8793,-0.098 8.202,-0.2144 11.6416,-1.0246 z M 431.24419,863.81225 c 12.70508,-2.99544 22.5285,-8.1896 31.03154,-16.40808 9.69278,-9.36844 15.96746,-20.80398 18.63231,-33.95719 0.70591,-3.48429 0.80832,-5.01876 0.79675,-11.93582 -0.0145,-8.51923 -0.37158,-11.45237 -2.13717,-17.54494 -3.06214,-10.56686 -8.20205,-19.41217 -15.80698,-27.20249 -9.006,-9.22549 -19.32898,-14.90228 -32.66617,-17.96369 -3.77733,-0.86706 -4.65264,-0.93243 -12.7,-0.94827 -9.16884,-0.018 -11.43494,0.2691 -18.52083,2.34682 -22.28173,6.53341 -39.31628,25.17832 -44.34153,48.53344 -0.72249,3.35785 -0.81403,4.73541 -0.81403,12.24996 0,7.43473 0.0987,8.954 0.81005,12.46499 5.27469,26.03489 25.09537,45.70056 51.04828,50.64901 4.35018,0.82945 4.77626,0.85344 13.05278,0.73551 6.86753,-0.0979 8.20484,-0.21523 11.615,-1.01925 z m 191.58502,-0.005 c 12.6401,-2.97745 22.40156,-8.14419 30.97678,-16.39606 5.7386,-5.5222 9.85866,-11.15285 13.32209,-18.20654 4.1191,-8.38891 5.95312,-15.87645 6.23422,-25.45126 0.26077,-8.88333 -0.55115,-14.77303 -3.09168,-22.42707 -3.35248,-10.1001 -8.50625,-18.32582 -16.0945,-25.68769 -8.98119,-8.71326 -18.66762,-13.88728 -31.5233,-16.83816 -3.77734,-0.86706 -4.65265,-0.93243 -12.7,-0.94827 -9.16884,-0.018 -11.43494,0.2691 -18.52084,2.34682 -24.70637,7.24437 -42.87883,29.44181 -45.28517,55.31535 -0.41631,4.47633 0.0819,13.37412 1.01724,18.16806 4.98983,25.57388 25.12106,45.48523 50.97071,50.41399 4.35017,0.82945 4.77626,0.85344 13.05278,0.73551 6.87931,-0.098 8.20201,-0.21449 11.64167,-1.02468 z m 191.55834,0 c 12.6401,-2.97745 22.40157,-8.14419 30.97678,-16.39606 9.70132,-9.33552 15.88414,-20.58589 18.63313,-33.90515 0.7438,-3.60387 0.83534,-4.96309 0.81971,-12.17084 -0.0162,-7.40847 -0.0994,-8.49905 -0.95849,-12.54421 -2.783,-13.10425 -8.79521,-24.10167 -18.12421,-33.15236 -8.98119,-8.71326 -18.66763,-13.88728 -31.52331,-16.83816 -3.77733,-0.86706 -4.65264,-0.93243 -12.7,-0.94827 -7.77402,-0.0152 -9.01548,0.0652 -12.34722,0.80024 -9.90897,2.18624 -16.92258,5.18182 -24.51806,10.4719 -14.43993,10.05713 -23.88602,25.426 -26.66944,43.39142 -0.59471,3.83843 -0.47533,13.71854 0.22021,18.22369 2.78987,18.07132 12.69023,33.65098 27.75543,43.67724 7.10096,4.72585 14.73824,7.89647 22.85908,9.49004 5.3056,1.04112 5.39323,1.04691 13.93472,0.9252 6.87931,-0.098 8.20202,-0.21449 11.64167,-1.02468 z M 327.47808,723.69766 c 2.3446,-0.60752 4.84933,-1.78033 7.30805,-3.42184 0.87313,-0.5829 13.42089,-12.86877 27.88391,-27.30186 l 26.29645,-26.24202 3.7991,1.5917 c 4.43353,1.85745 8.19368,3.04282 13.10527,4.13124 3.1146,0.69025 4.56071,0.78296 12.34722,0.79171 8.38511,0.01 9.01922,-0.0373 12.87639,-0.94919 12.86429,-3.0413 22.64661,-8.20254 31.18126,-16.45158 9.69278,-9.36844 15.96746,-20.80398 18.63231,-33.95719 0.70591,-3.48428 0.80832,-5.01876 0.79675,-11.93581 -0.0145,-8.51923 -0.37158,-11.45237 -2.13717,-17.54495 -3.06214,-10.56686 -8.20205,-19.41216 -15.80698,-27.20248 -9.006,-9.2255 -19.32898,-14.90229 -32.66617,-17.9637 -3.77733,-0.86705 -4.65264,-0.93242 -12.7,-0.94826 -9.16884,-0.018 -11.43494,0.2691 -18.52083,2.34682 -19.85233,5.82104 -35.8194,21.45157 -42.45173,41.55701 -2.04061,6.18585 -2.60498,9.72065 -2.78991,17.47312 -0.24141,10.1201 0.89867,17.0778 4.15936,25.38406 l 1.38613,3.53105 -26.58147,26.63575 c -14.61982,14.64966 -27.05839,27.35012 -27.64128,28.22325 -2.80051,4.19495 -3.97694,7.84743 -3.97694,12.34722 0,9.1942 6.09133,17.23912 14.99305,19.80156 2.72124,0.78331 7.69643,0.83277 10.50723,0.10439 z M 239.68583,672.2539 c 12.82104,-3.02277 22.60285,-8.22346 31.19155,-16.58362 12.62302,-12.28715 19.44807,-28.0658 19.48007,-45.03551 0.0336,-17.81718 -6.04262,-33.02162 -18.15516,-45.42938 -9.00598,-9.2255 -19.32899,-14.90229 -32.66616,-17.9637 -3.77733,-0.86705 -4.65266,-0.93242 -12.7,-0.94826 -9.17463,-0.018 -11.49667,0.27689 -18.52084,2.35243 -19.85461,5.86669 -35.59733,21.21203 -42.36532,41.29588 -2.34995,6.9734 -2.79024,10.04757 -2.79024,19.48191 0,7.43472 0.0987,8.95399 0.81006,12.46498 5.26306,25.97753 25.15258,45.71147 51.04828,50.64901 4.35019,0.82946 4.77627,0.85344 13.05278,0.73551 6.86751,-0.0979 8.20483,-0.21523 11.61498,-1.01925 z m 383.14338,-0.005 c 12.6401,-2.97744 22.40156,-8.14419 30.97678,-16.39605 5.7386,-5.52221 9.85866,-11.15286 13.32209,-18.20655 4.1191,-8.38891 5.95312,-15.87644 6.23422,-25.45126 0.26077,-8.88333 -0.55115,-14.77303 -3.09168,-22.42707 -3.35248,-10.1001 -8.50625,-18.32582 -16.0945,-25.68769 -8.98119,-8.71326 -18.66762,-13.88728 -31.5233,-16.83816 -3.77734,-0.86705 -4.65265,-0.93242 -12.7,-0.94826 -7.78514,-0.0152 -9.01072,0.0644 -12.34723,0.80285 -5.16294,1.14275 -8.01458,2.01856 -12.64264,3.88292 l -3.99958,1.61121 -15.19714,-15.32785 C 557.4078,528.83227 540.31744,511.616 527.78766,499.0042 515.25787,486.39239 498.3934,469.40614 490.31101,461.25697 l -14.6952,-14.81666 1.71058,-4.23334 c 3.51656,-8.70292 4.74758,-15.7535 4.46557,-25.57639 -0.19664,-6.85013 -0.72799,-10.61748 -2.22698,-15.79023 -3.05933,-10.55712 -8.20195,-19.4056 -15.80434,-27.19331 -6.55754,-6.71735 -14.11288,-11.71367 -22.78045,-15.0646 l -3.00655,-1.16237 v -35.02354 -35.02355 l 2.15769,-0.7724 c 7.82945,-2.80278 15.96532,-7.89916 22.1444,-13.87146 9.69278,-9.36842 15.96746,-20.80396 18.63231,-33.95718 0.70591,-3.48429 0.80832,-5.01877 0.79675,-11.93581 -0.0102,-6.0142 -0.16211,-8.72698 -0.62735,-11.19568 -2.53347,-13.44313 -8.78695,-25.24795 -18.28832,-34.52327 -9.02349,-8.8088 -18.74181,-14.01899 -31.69465,-16.99218 -3.77733,-0.86705 -4.65264,-0.93241 -12.7,-0.94825 -9.16884,-0.0181 -11.43494,0.26909 -18.52083,2.3468 -22.28173,6.53341 -39.31628,25.17833 -44.34153,48.53345 -0.72249,3.35785 -0.81403,4.7354 -0.81403,12.24996 0,7.43474 0.0987,8.95399 0.81005,12.46498 3.3347,16.45939 12.64398,30.81405 26.00106,40.09293 3.87982,2.69522 8.00333,5.01851 11.28889,6.36043 1.35819,0.55473 2.66788,1.15729 2.91042,1.33902 0.34766,0.26051 0.44097,7.85067 0.44097,35.87459 0,28.02392 -0.0933,35.61408 -0.44097,35.87457 -0.24254,0.18175 -1.55223,0.79054 -2.91042,1.35291 -7.66329,3.17295 -16.07795,9.20954 -22.02494,15.80049 -4.46712,4.95081 -8.42222,11.08294 -11.20394,17.37113 l -1.39573,3.15507 -35.79408,0.0898 -35.79408,0.0899 -1.32665,-3.13302 c -2.9474,-6.96059 -7.28089,-13.40644 -12.92236,-19.22138 -9.07816,-9.35733 -19.38096,-15.05021 -32.82017,-18.13504 -3.77733,-0.86706 -4.65266,-0.93243 -12.7,-0.94827 -9.17463,-0.018 -11.49667,0.2769 -18.52084,2.35243 -19.85461,5.86669 -35.59733,21.21204 -42.36532,41.29589 -2.34995,6.97339 -2.79024,10.04757 -2.79024,19.4819 0,9.53273 0.49011,13.0095 2.85123,20.2261 6.52164,19.93307 23.04588,35.86166 43.00989,41.4595 7.08316,1.98614 8.58609,2.16793 17.81528,2.15491 8.1442,-0.0116 8.8772,-0.0674 12.7,-0.96901 5.45815,-1.28736 10.05853,-2.82505 14.09497,-4.71128 14.85638,-6.94242 26.72001,-19.66983 32.66243,-35.04053 l 1.16421,-3.01135 h 34.98117 34.98116 l 1.16237,3.00655 c 7.28042,18.83159 22.96125,33.23322 41.99675,38.57071 7.01023,1.96568 8.61434,2.16256 17.63889,2.16493 7.57075,0.004 8.85264,-0.0842 12.11422,-0.81457 4.65754,-1.04298 9.36512,-2.49343 12.87515,-3.96688 l 2.76433,-1.16042 13.81326,13.90819 c 7.59732,7.64949 24.05285,24.22691 36.56789,36.83872 12.51508,12.6118 30.13393,30.34905 39.15301,39.41607 l 16.39838,16.48548 -0.47081,1.15341 c -2.92997,7.17737 -4.68976,13.96115 -5.2867,20.37976 -0.41631,4.47633 0.0819,13.37413 1.01724,18.16806 4.98983,25.57389 25.12106,45.48523 50.97071,50.41399 4.35017,0.82946 4.77626,0.85344 13.05278,0.73551 6.87931,-0.098 8.20201,-0.21449 11.64167,-1.02468 z m 191.55834,0 c 12.6401,-2.97744 22.40157,-8.14419 30.97678,-16.39605 9.70132,-9.33553 15.88414,-20.58589 18.63313,-33.90516 0.7438,-3.60387 0.83534,-4.96309 0.81971,-12.17083 -0.0162,-7.40848 -0.0994,-8.49905 -0.95849,-12.54422 -2.783,-13.10425 -8.79521,-24.10167 -18.12421,-33.15236 -8.98119,-8.71326 -18.66763,-13.88728 -31.52331,-16.83816 -3.77733,-0.86705 -4.65264,-0.93242 -12.7,-0.94826 -7.77402,-0.0152 -9.01548,0.0652 -12.34722,0.80024 -9.90897,2.18623 -16.92258,5.18181 -24.51806,10.47189 -14.43993,10.05713 -23.88602,25.426 -26.66944,43.39142 -0.59471,3.83844 -0.47533,13.71854 0.22021,18.22369 2.78987,18.07133 12.69023,33.65098 27.75543,43.67725 7.10096,4.72584 14.73824,7.89647 22.85908,9.49004 5.3056,1.04111 5.39323,1.0469 13.93472,0.92519 6.87931,-0.098 8.20202,-0.21449 11.64167,-1.02468 z m 383.11665,0 c 8.83,-2.07994 15.6706,-4.99978 22.5953,-9.64445 15.166,-10.17252 25.3973,-26.82282 27.6939,-45.06881 0.547,-4.34548 0.2534,-14.34641 -0.5539,-18.87128 -3.5907,-20.12368 -16.4378,-37.13237 -34.9186,-46.22945 -4.7464,-2.33641 -8.6338,-3.68396 -14.8336,-5.14202 -4.0081,-0.94262 -4.6433,-0.99222 -12.8594,-1.00383 -7.7633,-0.0109 -9.0202,0.071 -12.3473,0.80504 -13.9205,3.07128 -24.2575,8.6632 -33.6358,18.19561 -8.6317,8.77355 -15.067,21.23609 -17.1426,33.19826 -1.2566,7.24161 -1.1255,16.48125 0.3379,23.8125 2.9682,14.87054 11.8651,29.18248 23.6805,38.09397 8.1016,6.11043 16.8809,10.08461 26.4073,11.95395 5.3056,1.04111 5.3932,1.0469 13.9347,0.92519 6.8793,-0.098 8.202,-0.21449 11.6416,-1.02468 z M 622.82921,480.69013 c 12.6401,-2.97745 22.40156,-8.1442 30.97678,-16.39606 5.7386,-5.5222 9.85866,-11.15286 13.32209,-18.20654 4.1191,-8.38892 5.95312,-15.87645 6.23422,-25.45126 0.26077,-8.88334 -0.55115,-14.77303 -3.09168,-22.42707 -3.35248,-10.1001 -8.50625,-18.32582 -16.0945,-25.6877 -8.98119,-8.71326 -18.66762,-13.88727 -31.5233,-16.83815 -3.77734,-0.86706 -4.65265,-0.93243 -12.7,-0.94827 -9.16884,-0.018 -11.43494,0.2691 -18.52084,2.34682 -24.70637,7.24436 -42.87883,29.44181 -45.28517,55.31535 -0.41631,4.47633 0.0819,13.37412 1.01724,18.16805 4.98983,25.57389 25.12106,45.48523 50.97071,50.414 4.35017,0.82945 4.77626,0.85344 13.05278,0.73551 6.87931,-0.098 8.20201,-0.21449 11.64167,-1.02468 z m 191.55834,0 c 12.6401,-2.97745 22.40157,-8.1442 30.97678,-16.39606 9.70132,-9.33552 15.88414,-20.58589 18.63313,-33.90515 0.7438,-3.60388 0.83534,-4.96309 0.81971,-12.17084 -0.0162,-7.40847 -0.0994,-8.49905 -0.95849,-12.54421 -1.02514,-4.82703 -2.71791,-10.01141 -4.66115,-14.27558 -0.68305,-1.49888 -1.24192,-2.91659 -1.24192,-3.15045 0,-0.23385 11.18768,-11.57171 24.86152,-25.19521 24.53556,-24.44529 24.88018,-24.80799 26.2883,-27.6648 2.45971,-4.99043 3.02616,-9.61254 1.77673,-14.4978 -1.92755,-7.53666 -7.23657,-13.05861 -14.65016,-15.2378 -1.40656,-0.41344 -3.3002,-0.621 -5.64444,-0.61866 -4.25073,0.004 -7.96911,1.07782 -11.29718,3.26175 -1.37566,0.90272 -10.94042,10.22689 -27.12424,26.44197 l -24.99921,25.04752 -1.80358,-0.72933 c -2.93476,-1.18674 -6.8283,-2.36089 -11.15219,-3.36307 -3.79211,-0.87891 -4.6211,-0.94142 -12.7,-0.95733 -7.77402,-0.0152 -9.01548,0.0652 -12.34722,0.80024 -9.90897,2.18624 -16.92258,5.18181 -24.51806,10.47189 -14.43993,10.05714 -23.88602,25.42601 -26.66944,43.39143 -0.59471,3.83843 -0.47533,13.71854 0.22021,18.22369 2.78987,18.07132 12.69023,33.65098 27.75543,43.67724 7.10096,4.72585 14.73824,7.89647 22.85908,9.49004 5.3056,1.04112 5.39323,1.0469 13.93472,0.9252 6.87931,-0.098 8.20202,-0.21449 11.64167,-1.02468 z m 191.55835,0 c 8.8299,-2.07995 15.6706,-4.99978 22.5953,-9.64445 13.8842,-9.31281 23.5116,-23.80446 27.0098,-40.65676 0.75,-3.61344 0.8402,-4.94397 0.8245,-12.17084 -0.016,-7.40847 -0.099,-8.49905 -0.9585,-12.54421 -3.7986,-17.88651 -14.0856,-32.53236 -29.5392,-42.05546 -5.8145,-3.58319 -12.3018,-6.14316 -20.1083,-7.93506 -3.7773,-0.86706 -4.6526,-0.93243 -12.69999,-0.94827 -9.15963,-0.018 -11.37684,0.26137 -18.52084,2.33391 -22.35775,6.48614 -40.02948,25.99281 -44.44238,49.057 -1.41132,7.3763 -1.33992,17.05913 0.18143,24.61211 3.34208,16.59195 13.13801,31.18774 27.2227,40.56147 7.10096,4.72585 14.73825,7.89647 22.85909,9.49004 5.3056,1.04112 5.39323,1.0469 13.93472,0.9252 6.87927,-0.098 8.20197,-0.21449 11.64167,-1.02468 z m 191.5583,0 c 8.83,-2.07995 15.6706,-4.99978 22.5953,-9.64445 15.166,-10.17253 25.3973,-26.82283 27.6939,-45.06881 0.547,-4.34549 0.2534,-14.34642 -0.5539,-18.87129 -3.0682,-17.19538 -13.0064,-32.32171 -27.6866,-42.14008 -2.5844,-1.72844 -8.3041,-4.70772 -12.7882,-6.66112 l -1.323,-0.57626 v -35.43253 -35.43252 l 1.323,-0.42369 c 2.969,-0.95089 9.3387,-4.27166 13.3348,-6.95206 15.166,-10.17252 25.3973,-26.8228 27.6939,-45.06881 0.547,-4.34548 0.2534,-14.34641 -0.5539,-18.87127 -3.5907,-20.12367 -16.4378,-37.13237 -34.9186,-46.22946 -4.7464,-2.3364 -8.6338,-3.68395 -14.8336,-5.14201 -4.0081,-0.94263 -4.6433,-0.99221 -12.8594,-1.00382 -9.1564,-0.013 -11.3847,0.26843 -18.5209,2.33869 -16.6308,4.82473 -30.8485,16.82743 -38.994,32.91913 l -1.6111,3.18274 -36.8903,0.0898 -36.8903,0.0898 -1.1326,-2.38287 c -6.2944,-13.24354 -17.338,-24.23511 -30.7143,-30.56973 -4.0712,-1.92802 -8.6877,-3.47109 -14.1049,-4.71454 -3.7773,-0.86705 -4.6526,-0.93241 -12.69999,-0.94825 -9.15963,-0.018 -11.37684,0.26137 -18.52084,2.33389 -22.35775,6.48616 -40.02948,25.9928 -44.44238,49.05702 -1.41132,7.37628 -1.33992,17.05912 0.18143,24.61208 3.34208,16.59197 13.13801,31.18776 27.2227,40.56147 7.06639,4.70284 14.38639,7.74963 23.03548,9.58799 3.44953,0.7332 4.82099,0.82513 12.34722,0.82768 9.42838,0.003 11.80748,-0.34466 19.75558,-2.88845 18.8414,-6.03019 34.6002,-21.65323 40.7632,-40.41216 l 1.1301,-3.43959 h 34.0998 34.0999 l 1.151,3.51155 c 5.7663,17.59216 19.8271,32.37168 37.2754,39.18064 l 2.4695,0.96366 v 35.34835 35.34834 l -3.7042,1.52368 c -15.5306,6.38831 -28.1601,19.02365 -34.5202,34.53649 -3.8649,9.42682 -5.2564,17.70408 -4.6501,27.66212 0.5658,9.29273 2.6283,17.3204 6.3738,24.80744 5.6727,11.33926 13.4818,19.87035 24.3331,26.58269 5.8651,3.62796 13.3076,6.50487 20.4579,7.90797 5.3056,1.04112 5.3932,1.0469 13.9347,0.9252 6.8793,-0.098 8.202,-0.21449 11.6416,-1.02468 z M 239.68583,289.13723 c 12.82104,-3.02277 22.60285,-8.22348 31.19155,-16.58365 12.62302,-12.28714 19.44807,-28.06581 19.48007,-45.03551 0.0336,-17.81716 -6.04262,-33.02161 -18.15516,-45.42937 -9.00598,-9.22548 -19.32899,-14.90229 -32.66616,-17.9637 -3.77733,-0.86705 -4.65266,-0.93241 -12.7,-0.94825 -9.17463,-0.0181 -11.49667,0.27687 -18.52084,2.3524 -19.85461,5.86672 -35.59733,21.21205 -42.36532,41.2959 -2.34995,6.97339 -2.79024,10.04756 -2.79024,19.48191 0,7.43474 0.0987,8.95399 0.81006,12.46498 5.26306,25.97753 25.15258,45.71148 51.04828,50.64901 4.35019,0.82945 4.77627,0.85346 13.05278,0.7355 6.86751,-0.0979 8.20483,-0.21522 11.61498,-1.01922 z m 383.14338,-0.005 c 12.6401,-2.97742 22.40156,-8.14416 30.97678,-16.39604 5.7386,-5.52221 9.85866,-11.15285 13.32209,-18.20654 4.1191,-8.38893 5.95312,-15.87645 6.23422,-25.45125 0.26077,-8.88333 -0.55115,-14.77304 -3.09168,-22.42707 -3.35248,-10.10009 -8.50625,-18.32581 -16.0945,-25.68768 -8.98119,-8.71328 -18.66762,-13.88729 -31.5233,-16.83818 -3.77734,-0.86705 -4.65265,-0.93241 -12.7,-0.94825 -9.16884,-0.0181 -11.43494,0.26909 -18.52084,2.3468 -24.70637,7.24435 -42.87883,29.44183 -45.28517,55.31535 -0.41631,4.47633 0.0819,13.37411 1.01724,18.16806 4.98983,25.57387 25.12106,45.48524 50.97071,50.41399 4.35017,0.82945 4.77626,0.85346 13.05278,0.7355 6.87931,-0.098 8.20201,-0.21446 11.64167,-1.02469 z m 191.55834,0 c 12.6401,-2.97742 22.40157,-8.14416 30.97678,-16.39604 9.70132,-9.33553 15.88414,-20.58588 18.63313,-33.90515 0.7438,-3.60386 0.83534,-4.9631 0.81971,-12.17083 -0.0162,-7.40847 -0.0994,-8.49906 -0.95849,-12.5442 -2.783,-13.10426 -8.79521,-24.10168 -18.12421,-33.15236 -8.98119,-8.71328 -18.66763,-13.88729 -31.52331,-16.83818 -3.77733,-0.86705 -4.65264,-0.93241 -12.7,-0.94825 -7.77402,-0.0153 -9.01548,0.0652 -12.34722,0.80023 -9.90897,2.18623 -16.92258,5.1818 -24.51806,10.4719 -14.43993,10.05712 -23.88602,25.426 -26.66944,43.39141 -0.59471,3.83844 -0.47533,13.71854 0.22021,18.2237 2.78987,18.07131 12.69023,33.65096 27.75543,43.67722 7.10096,4.72584 14.73824,7.8965 22.85908,9.49004 5.3056,1.04112 5.39323,1.04694 13.93472,0.9252 6.87931,-0.098 8.20202,-0.21446 11.64167,-1.02469 z"
       id="path1446" />
  </g>
  <g
     inkscape:groupmode="layer"
     id="layer3"
     inkscape:label="I"
     style="display:inline"
     sodipodi:insensitive="true">
    <path
       style="display:inline;fill:#000000;stroke-width:0.352778"
       d="m 514.26657,1115.4718 c -3.88857,-0.6547 -8.71771,-2.7662 -11.43625,-5.0003 -3.70039,-3.0409 -6.83193,-8.0412 -8.12888,-12.9798 -0.81114,-3.0886 -0.78839,-9.2524 0.0456,-12.3472 2.26935,-8.4213 8.36591,-14.5929 16.95718,-17.1658 2.00325,-0.5999 6.587,-0.6438 85.54862,-0.8181 l 83.43195,-0.1841 V 709.08338 351.1903 l -83.60834,-0.17782 -83.60834,-0.17782 -2.64009,-0.8164 c -7.75532,-2.39822 -13.72005,-8.11531 -16.25998,-15.58491 -1.05816,-3.11196 -1.29618,-8.61676 -0.55654,-12.87241 1.43869,-8.27792 7.6291,-15.15717 16.28161,-18.09339 l 2.82222,-0.95772 84.31389,-0.17782 c 46.37265,-0.0978 132.01828,-0.0944 190.32363,0.008 118.96849,0.20819 107.18402,-0.0887 113.18886,2.85123 3.37199,1.65088 7.3212,5.14143 9.45621,8.35796 3.24132,4.88324 4.35927,11.63593 3.00634,18.15878 -1.92349,9.27361 -7.93458,15.74873 -17.17224,18.49786 -1.99785,0.59456 -6.73044,0.63988 -84.31389,0.80735 l -82.19723,0.17743 v 357.89308 357.8931 l 85.19584,0.1765 c 80.67037,0.1671 85.30827,0.2101 87.3125,0.8104 8.10539,2.4272 13.54903,7.405 16.47822,15.068 1.11322,2.9123 1.14483,3.1461 1.14483,8.4631 0,5.317 -0.0317,5.5508 -1.14483,8.4631 -2.54949,6.6696 -7.53466,11.7877 -13.75925,14.1261 -4.96352,1.8646 7.64363,1.7557 -198.10072,1.711 -105.00046,-0.023 -191.66188,-0.1681 -192.5809,-0.3229 z"
       id="path840"
       inkscape:label="Edge" />
    <path
       style="display:inline;fill:#ffffff;fill-opacity:1;stroke-width:2.22602"
       d="m 1950.0282,4198.1406 c -20.7231,-1.6174 -32.995,-7.572 -46.5686,-22.5965 -14.0158,-15.5136 -17.9257,-26.6524 -17.9153,-51.0375 0.01,-18.6157 0.7181,-22.4794 5.9325,-32.2772 7.1287,-13.3946 21.5871,-27.685 35.2365,-34.8269 l 10.017,-5.2414 321.1997,-1.2715 321.1997,-1.2717 4.9118,-4.9118 4.9117,-4.9114 0.6271,-1358.5879 c 0.6196,-1342.3529 0.5754,-1358.6516 -3.697,-1363.93 l -4.3241,-5.3423 -162.1412,-1.3912 c -89.1777,-0.7652 -233.9307,-1.5165 -321.6734,-1.6695 -153.3939,-0.2677 -159.9255,-0.447 -169.7537,-4.6598 -13.4371,-5.7598 -31.417,-22.7988 -38.7856,-36.7558 -5.1837,-9.8186 -5.8994,-13.7397 -5.8994,-32.3213 0,-18.6186 0.7399,-22.6538 6.1879,-33.7477 7.4209,-15.1114 19.995,-27.0069 36.9523,-34.958 l 12.5102,-5.8659 716.6364,-0.5997 716.6363,-0.5998 14.1616,4.7127 c 18.2329,6.0675 37.7964,23.537 45.2733,40.4273 7.7572,17.5236 7.2789,42.4906 -1.173,61.2332 -7.3914,16.3907 -20.9685,29.8635 -37.5557,37.267 l -11.52,5.1418 -314.9814,1.4902 c -308.7323,1.4607 -315.0697,1.5768 -319.4334,5.8507 -4.4412,4.3498 -4.4534,7.67 -5.0139,1363.962 -0.4844,1171.9733 -0.1256,1360.1988 2.6008,1363.9299 2.9933,4.0965 7.3778,4.4052 81.8116,5.7633 43.2568,0.7894 190.9304,1.5407 328.1636,1.6695 l 249.5148,0.2347 13.6207,6.8062 c 17.0126,8.5014 31.9979,24.7867 38.387,41.7174 3.8359,10.1651 4.6007,16.0772 3.8411,29.6957 -1.6271,29.1731 -14.9451,49.2206 -42.2582,63.6113 l -11.7665,6.1995 -719.0034,0.2284 c -395.4519,0.1269 -727.0433,-0.3989 -736.8698,-1.166 z"
       id="path1442"
       transform="scale(0.26458333)"
       inkscape:label="Fill" />
  </g>
</svg>
